<svg xmlns="http://www.w3.org/2000/svg" viewBox="0 0 15 15"><title>Close</title><path d="M7.49586652,6.73356737 L13.4044936,0.824940276 C13.6160283,0.620633208 13.9522734,0.623555086 14.1602257,0.831507383 C14.3681779,1.03945968 14.3710998,1.37570471 14.1667928,1.58723943 L8.25816567,7.49586652 L14.2940223,13.5317232 C14.4983294,13.7432579 14.4954075,14.0795029 14.2874552,14.2874552 C14.0795029,14.4954075 13.7432579,14.4983294 13.5317232,14.2940223 L7.49586652,8.25816567 L1.58723943,14.1667928 C1.45188309,14.3069375 1.25144078,14.3631428 1.06295265,14.3138061 C0.874464514,14.2644693 0.727263707,14.1172685 0.677926972,13.9287804 C0.628590237,13.7402923 0.68479552,13.5398499 0.824940276,13.4044936 L6.73356737,7.49586652 L0.824940276,1.58723943 C0.68479552,1.45188309 0.628590237,1.25144078 0.677926972,1.06295265 C0.727263707,0.874464514 0.874464514,0.727263707 1.06295265,0.677926972 C1.25144078,0.628590237 1.45188309,0.68479552 1.58723943,0.824940276 L7.49586652,6.73356737 Z"></path></svg>